<?xml version="1.0" encoding="utf-8"?>
<!DOCTYPE svg PUBLIC "-//W3C//DTD SVG 20010904//EN" "http://www.w3.org/TR/2001/REC-SVG-20010904/DTD/svg10.dtd">
<svg version="1.0" xmlns="http://www.w3.org/2000/svg" width="21px" height="20px" viewBox="0 0 21 20" preserveAspectRatio="xMidYMid meet">
 <g fill="#0e0505">
  <path d="M0 10 l0 -10 10.5 0 10.5 0 0 10 0 10 -10.5 0 -10.5 0 0 -10z"/>
 </g>
 <g fill="#591e1e">
  <path d="M2.9 17.1 c-4.1 -4.2 -4.1 -10.1 0.1 -14.2 2.6 -2.6 3.6 -3 7.7 -2.7 2.5 0.2 4.8 0.8 5 1.4 0.3 0.8 -1 1 -4.1 0.7 -3.8 -0.5 -4.8 -0.2 -7 2 -3.4 3.4 -3.4 7.9 -0.1 11.2 5.1 5.2 14.5 1.6 14.5 -5.4 0 -4.8 -1.4 -4.4 -4.9 1.5 -1.9 2.9 -3.5 5.4 -3.6 5.4 -0.1 0 -1.4 -1.8 -2.9 -4 -2.7 -4 -1.8 -5.4 1.5 -2.4 1.7 1.5 2 1.3 5 -3.6 l3.2 -5.3 1.9 2.3 c2.9 3.6 2.4 9.6 -1.1 13.1 -2.4 2.4 -3.8 2.9 -7.6 2.9 -3.8 0 -5.2 -0.5 -7.6 -2.9z"/>
 </g>
 <g fill="#913131">
  <path d="M5.1 18.6 c-5.9 -3.3 -6.7 -10.2 -1.7 -15.2 3.5 -3.5 8.3 -4.5 11.6 -2.4 1.1 0.7 0.1 0.9 -3.3 0.8 -3.7 0 -5.4 0.5 -7.2 2.2 -3.4 3.2 -3.4 8.8 0 12 5.6 5.2 14.5 1.5 14.5 -6 0 -2 -0.3 -4 -0.6 -4.3 -0.4 -0.4 -2.2 1.8 -4.1 4.8 -1.9 3 -3.6 5.5 -3.8 5.5 -0.2 0 -1.3 -1.4 -2.5 -3.1 -2.6 -3.5 -1.9 -5.2 0.8 -1.9 l1.8 2.2 3.1 -5.1 c1.8 -2.8 3.6 -5.1 4.1 -5.1 1.1 0 3.2 4.5 3.2 7 0 7.6 -9 12.4 -15.9 8.6z"/>
 </g>
 <g fill="#da4a4a">
  <path d="M6.5 19.1 c-6.1 -2.7 -8 -10.8 -3.6 -15.5 2.8 -3 8.1 -4.3 10.8 -2.7 1.5 0.9 1.2 1 -1.3 0.5 -6.9 -1.3 -13 5.4 -10.4 11.6 1.3 3.1 5.4 6 8.5 6 2.9 0 7.1 -2.8 8.3 -5.5 1.5 -3.3 1.5 -4.7 -0.1 -6.9 -1.2 -1.7 -1.6 -1.3 -4.7 3.8 l-3.4 5.6 -2.3 -2.7 c-3 -3.7 -2.9 -5.2 0.1 -2.4 l2.5 2.3 3.2 -5.2 c2.7 -4.4 3.4 -5 4.6 -3.8 0.7 0.8 1.6 3 1.9 5 0.5 2.9 0.1 4.1 -2.2 6.7 -3.1 3.4 -8.3 4.8 -11.9 3.2z"/>
 </g>
</svg>